# xmcd
#
# Track frame offsets:
#	150
#	15375
#	28200
#	42675
#	56850
#	71550
#	86775
#	102225
#	117525
#	133650
#	147900
#	162675
#	177525
#	192600
#	207525
#	221250
#	236100
#	251700
#
# Disc length: 3542 seconds
#
# Revision: 0
# Processed by: cddbd v1.5.1PL0 Copyright (c) Steve Scherf et al.
# Submitted via: audiograbber 1.83.01
#
DISCID=270dd412
DTITLE=Γιάννης Παπαιωάννου - Νο 1
DYEAR=1900
DGENRE=
TTITLE0=Φαληριώτισσα
TTITLE1=Βαγγελίτσα
TTITLE2=Αφότου μ'απαρνηθηκες
TTITLE3=Το ναυτάκι
TTITLE4=Οταν ηρθε εχθές το βράδυ
TTITLE5=Βαδίζω με παράπονο
TTITLE6=Τώρα το πήρες αψηλά
TTITLE7=Φούρνος να μην καπνίσει
TTITLE8=Φύγε δεν σε θέλω πιά
TTITLE9=Ψαροπούλα
TTITLE10=Απ'της ζέας το λιμάνι
TTITLE11=Τι μάγια σ'εχουν ποτίσει
TTITLE12=Γιαχαμπίμπι
TTITLE13=Παύσε ν'ακούς την φίλη σου
TTITLE14=Ντόμινα Μαργαρώ
TTITLE15=Της ορφανής το κρίμα
TTITLE16=Κακαβιά
TTITLE17=Σέρβικο Σμυρνέικο
EXTD=
EXTT0=
EXTT1=
EXTT2=
EXTT3=
EXTT4=
EXTT5=
EXTT6=
EXTT7=
EXTT8=
EXTT9=
EXTT10=
EXTT11=
EXTT12=
EXTT13=
EXTT14=
EXTT15=
EXTT16=
EXTT17=
PLAYORDER=
